<svg width="50" height="37" viewBox="0 0 50 37" fill="none" xmlns="http://www.w3.org/2000/svg">
<path d="M3.36108 36.981H11.2036V17.9349L0 9.53223V33.6199C0 35.4797 1.50688 36.981 3.36108 36.981Z" fill="#4285F4"/>
<path d="M38.0938 36.981H45.9363C47.7961 36.981 49.2973 35.4741 49.2973 33.6199V9.53223L38.0938 17.9349" fill="#34A853"/>
<path d="M38.0938 3.37061V17.9353L49.2973 9.53258V5.05115C49.2973 0.894618 44.5526 -1.47494 41.2308 1.01786" fill="#FBBC04"/>
<path d="M11.2031 17.9348V3.37012L24.6474 13.4533L38.0917 3.37012V17.9348L24.6474 28.018" fill="#EA4335"/>
<path d="M0 5.05115V9.53258L11.2036 17.9353V3.37061L8.06658 1.01786C4.73912 -1.47494 0 0.894618 0 5.05115" fill="#C5221F"/>
</svg>
